<svg width="420" height="320" viewBox="0 0 420 320" fill="none" xmlns="http://www.w3.org/2000/svg">
  <defs>
    <linearGradient id="robotBody" x1="115" y1="76" x2="286" y2="242" gradientUnits="userSpaceOnUse">
      <stop stop-color="#FBFCFF"/>
      <stop offset="1" stop-color="#DDE7FF"/>
    </linearGradient>
    <linearGradient id="robotAccent" x1="135" y1="36" x2="295" y2="165" gradientUnits="userSpaceOnUse">
      <stop stop-color="#7A6BFF"/>
      <stop offset="1" stop-color="#63BCFF"/>
    </linearGradient>
    <filter id="shadow" x="70" y="56" width="260" height="214" filterUnits="userSpaceOnUse" color-interpolation-filters="sRGB">
      <feDropShadow dx="0" dy="22" stdDeviation="18" flood-color="#8A9CDB" flood-opacity="0.28"/>
    </filter>
  </defs>
  <circle cx="83" cy="74" r="22" fill="#FFFFFF" fill-opacity="0.32"/>
  <circle cx="342" cy="92" r="18" fill="#8F84FF" fill-opacity="0.24"/>
  <circle cx="330" cy="228" r="26" fill="#6EC6FF" fill-opacity="0.22"/>
  <g filter="url(#shadow)">
    <rect x="103" y="78" width="214" height="150" rx="42" fill="url(#robotBody)"/>
    <rect x="142" y="42" width="136" height="56" rx="28" fill="url(#robotAccent)"/>
    <rect x="164" y="28" width="12" height="20" rx="6" fill="#6E7BAE"/>
    <circle cx="170" cy="22" r="12" fill="#7B70FF"/>
    <rect x="136" y="110" width="148" height="64" rx="24" fill="#EFF4FF"/>
    <circle cx="182" cy="142" r="14" fill="#7C73FF"/>
    <circle cx="238" cy="142" r="14" fill="#7C73FF"/>
    <path d="M181 187C190.839 177.858 208.32 174.631 223.302 177.429C232.473 179.142 240.394 183.08 246 189.5" stroke="#7382B2" stroke-width="8" stroke-linecap="round"/>
    <rect x="167" y="204" width="86" height="12" rx="6" fill="#D9E4FF"/>
  </g>
  <path d="M140 240L118 284" stroke="#7382B2" stroke-width="12" stroke-linecap="round"/>
  <path d="M281 240L303 284" stroke="#7382B2" stroke-width="12" stroke-linecap="round"/>
  <path d="M118 284L95 304" stroke="#7382B2" stroke-width="12" stroke-linecap="round"/>
  <path d="M303 284L326 304" stroke="#7382B2" stroke-width="12" stroke-linecap="round"/>
  <path d="M115 166L80 198" stroke="#7382B2" stroke-width="12" stroke-linecap="round"/>
  <path d="M305 166L340 198" stroke="#7382B2" stroke-width="12" stroke-linecap="round"/>
  <circle cx="343" cy="66" r="36" fill="#FFFFFF" fill-opacity="0.4"/>
  <path d="M343.918 45C358.319 45 366.629 55.8193 364.286 68.0893C362.726 76.2609 356.097 82.6134 348.035 84.7258L346.843 92.6417C346.641 93.9831 345.44 94.9395 344.095 94.8396C342.75 94.7396 341.703 93.6129 341.703 92.2643V81.0402C341.703 79.8107 342.587 78.7582 343.798 78.5457C349.282 77.5832 353.61 73.5006 354.672 67.9296C356.233 59.7374 350.68 53 343.918 53C338.169 53 333.442 57.3214 332.839 62.9763C332.674 64.518 331.378 65.6667 329.829 65.6667C328.041 65.6667 326.638 64.135 326.839 62.3582C327.903 52.9567 335.926 45 343.918 45Z" fill="#7A6BFF"/>
  <circle cx="344" cy="104" r="6" fill="#7A6BFF"/>
</svg>
